<svg preserveAspectRatio="none" overflow="visible" style="display: block;" width="181.011" height="172.011" viewBox="0 0 181.011 172.011" fill="none" xmlns="http://www.w3.org/2000/svg">
<g id="Group 5">
<g id="Vector">
<path fill-rule="evenodd" clip-rule="evenodd" d="M131.069 92.4403C130.861 92.4495 130.653 92.4588 130.446 92.4685C130.652 92.4588 130.86 92.4495 131.067 92.4403L131.069 92.4403ZM107.916 95.3835C107.766 95.3891 107.617 95.3948 107.468 95.4006C107.616 95.3948 107.766 95.3891 107.916 95.3835ZM138.643 112.391C138.487 112.423 138.331 112.456 138.175 112.488C138.331 112.456 138.488 112.423 138.643 112.391ZM90.702 117.326C90.533 117.33 90.3637 117.334 90.1944 117.338L90.2007 117.338C90.3679 117.334 90.5351 117.33 90.702 117.326ZM84.8735 119.055C84.8904 119.09 84.907 119.124 84.9233 119.158C84.9183 119.148 84.9133 119.137 84.9082 119.127L84.8735 119.055ZM13.2687 84.4557C13.3452 84.0569 13.4274 83.6579 13.5097 83.2588C13.4403 83.5956 13.3708 83.9323 13.3049 84.2689C13.2927 84.3311 13.2806 84.3934 13.2687 84.4557ZM174.416 81.9668C174.167 82.2946 173.92 82.6228 173.671 82.9507C173.813 82.7646 173.953 82.5783 174.094 82.3921C174.201 82.2503 174.309 82.1085 174.416 81.9668ZM130.939 76.5398C130.973 76.5382 131.007 76.5366 131.04 76.535C131.007 76.5366 130.973 76.5382 130.939 76.5398ZM121.928 77.4214C122.184 77.4125 122.44 77.4053 122.697 77.3982L122.694 77.3985C122.438 77.4056 122.183 77.4125 121.928 77.4214ZM93.2466 79.5666L93.2435 79.5667ZM144.105 69.8095C143.725 69.84 143.351 69.8699 142.987 69.901C143.148 69.8873 143.311 69.8738 143.475 69.8603C143.683 69.8433 143.893 69.8265 144.105 69.8095ZM125.208 57.6846C125.592 57.6527 125.976 57.6208 126.359 57.5884C125.977 57.6207 125.594 57.6525 125.212 57.6843L125.208 57.6846ZM111.273 40.9404C111.331 40.9268 111.388 40.9132 111.446 40.8997C111.388 40.9131 111.33 40.9269 111.273 40.9404ZM72.1277 45.5762C72.1289 45.576 72.1301 45.5759 72.1314 45.5757L72.1277 45.5762ZM50.0514 50.4754C50.2354 50.4433 50.4194 50.4113 50.603 50.3786C50.4196 50.4113 50.2351 50.4433 50.0514 50.4754ZM42.8626 52.7582C42.9465 52.7201 43.0304 52.6821 43.1141 52.6443C43.0309 52.6819 42.946 52.7204 42.8626 52.7582Z" fill="#1A1A1A"/>
<path fill-rule="evenodd" clip-rule="evenodd" d="M171.374 84.9617C170.83 85.3483 170.286 85.7352 169.8 86.185C168.688 86.2663 168.493 86.4711 168.299 86.675C168.168 86.8134 168.037 86.9514 167.619 87.0502C166.443 87.3284 165.261 87.6662 164.075 88.005C162.108 88.5671 160.131 89.1319 158.158 89.4317C156.421 89.6952 154.687 89.7522 152.953 89.8092C150.656 89.8847 148.36 89.9602 146.061 90.5153C145.287 90.7024 144.391 90.7792 143.49 90.8565C142.602 90.9327 141.708 91.0093 140.919 91.1927C139.1 91.3414 137.696 91.468 135.933 91.9144C134.447 92.2904 132.751 92.3657 131.069 92.4403L131.067 92.4403C129.957 92.4895 128.854 92.5386 127.821 92.6736C122.44 93.3792 117.12 94.1939 111.77 95.0846C110.575 95.2831 109.244 95.3334 107.916 95.3835C106.721 95.4286 105.526 95.4737 104.43 95.6266C102.518 95.9498 100.569 96.1461 98.6232 96.342C96.3932 96.5666 94.1671 96.7907 92.005 97.2052C90.2531 97.5416 86.6367 98.8988 85.6531 100.354C85.6506 100.371 85.6479 100.389 85.6453 100.405C85.6408 100.434 85.6363 100.461 85.632 100.487L85.6309 100.493C85.5879 100.751 85.5677 100.872 85.815 101.142C87.3122 102.779 88.4046 102.467 90.0005 102.012C90.2682 101.936 90.5501 101.856 90.8505 101.78C91.0875 102.028 91.154 102.092 91.4702 102.224C92.5449 102.082 94.3189 101.955 96.318 101.812C100.756 101.495 106.304 101.099 107.775 100.279C110.392 100.793 114.288 100.312 117.889 99.8667C119.842 99.6253 121.709 99.3947 123.238 99.3395C123.867 99.3167 124.5 99.2927 125.136 99.2686C133.803 98.94 143.032 98.5901 151.365 101.019C152.212 101.266 153.417 102.936 153.828 103.708C153.83 103.856 153.833 104.002 153.835 104.146C153.866 105.731 153.891 107.031 152.639 108.255C149.987 110.849 146.436 111.27 142.958 111.683C142.523 111.734 142.088 111.786 141.658 111.841C140.666 111.969 139.658 112.179 138.645 112.391L138.643 112.391C137.398 112.65 136.145 112.912 134.909 113.022C131.717 113.211 128.549 113.579 125.385 113.947C121.33 114.419 117.28 114.89 113.19 114.98C112.244 115.032 111.281 115.227 110.318 115.422C108.911 115.708 107.501 115.994 106.142 115.831C105.627 115.77 104.415 115.977 103.524 116.13C103.235 116.179 102.98 116.223 102.793 116.25C99.5495 116.721 96.1479 117.113 92.8815 117.255C91.9991 117.294 91.1018 117.316 90.2007 117.338L90.1944 117.338C88.298 117.384 86.3848 117.431 84.5567 117.634C84.3985 118.066 84.652 118.594 84.8735 119.055L84.9082 119.127C84.9261 119.164 84.9437 119.201 84.9605 119.238C85.2794 119.927 85.6192 120.607 85.9803 121.277L86.1869 121.321C87.3871 121.582 88.4188 122.143 89.4611 122.71C90.3234 123.179 91.1929 123.652 92.1711 123.962C94.5232 124.707 96.8445 125.288 99.1681 125.869C101.502 126.453 103.838 127.038 106.21 127.79L106.544 127.896C110.444 129.127 114.364 130.365 113.217 135.617C112.883 137.149 111.186 139.05 109.838 139.835C109.21 140.21 108.508 140.44 107.78 140.51C106.285 140.64 93.4932 139.715 92.3071 139.37C91.8907 139.249 91.4759 139.108 91.0605 138.966C90.4285 138.751 89.7951 138.535 89.1532 138.39C88.0832 138.148 86.9633 138.014 85.8524 137.881C85.3398 137.819 84.8292 137.758 84.3262 137.687C82.2804 137.388 80.2425 137.035 78.2164 136.625C75.1922 136.01 72.1635 135.415 69.1308 134.841C68.931 134.805 68.7306 134.77 68.5297 134.735C68.2973 134.694 68.0641 134.654 67.8304 134.614C67.6428 134.582 67.4548 134.55 67.2665 134.518L66.7718 134.434L66.7451 134.429C63.9437 133.956 61.0916 133.473 58.3901 132.655C49.9325 130.094 42.3702 125.769 34.7621 121.312C31.209 119.232 26.0103 115.933 23.5748 112.418C23.2303 111.919 23.3091 111.27 23.3828 110.663C23.4371 110.216 23.4886 109.791 23.3648 109.469C23.1071 108.799 22.5865 108.326 22.0742 107.86C21.4497 107.292 20.8375 106.735 20.7295 105.848C20.7013 105.619 20.5561 105.457 20.3957 105.299C20.1561 105.289 20.0037 105.292 19.7721 105.224L19.6898 105.033C19.1744 103.869 18.5998 102.977 17.9916 102.033C17.693 101.57 17.3863 101.094 17.0745 100.567C16.9866 100.419 16.9138 100.07 16.8317 99.6777C16.7313 99.197 16.6169 98.65 16.4441 98.3223C16.3126 98.6191 16.3088 98.6367 16.2602 98.8622C16.251 98.9047 16.2402 98.9547 16.2267 99.0153L16.0964 99.0213L16.067 98.9301C14.6864 94.6537 13.1261 89.8207 13.1215 85.2738C13.1769 84.939 13.2392 84.604 13.3049 84.2689C13.3697 83.9379 13.438 83.6068 13.5062 83.2755L13.5097 83.2588C13.6663 82.4989 13.823 81.7386 13.9403 80.9789C14.3202 78.4989 15.173 75.7797 16.1437 73.492C17.9887 69.1452 26.1295 58.9673 31.1051 58.865C31.9563 58.1526 32.9326 57.6657 33.9149 57.176C34.2656 57.0011 34.6171 56.8258 34.9639 56.6398C35.4605 56.3739 35.9379 56.0721 36.4154 55.7702C36.9286 55.4457 37.4419 55.1212 37.9795 54.8411C38.6449 54.4934 39.3536 54.2206 40.061 53.9484L40.0651 53.9467C40.4531 53.7974 40.8406 53.6483 41.2204 53.487C41.4652 53.3828 41.7071 53.277 41.947 53.1704C42.2553 53.0335 42.5594 52.8956 42.8626 52.7582C44.2046 52.15 45.5217 51.5532 46.993 51.1253C47.9981 50.8329 49.0277 50.6536 50.0514 50.4754C51.0325 50.3045 52.0116 50.134 52.9652 49.8649C54.1604 49.5276 55.3472 49.1503 56.5342 48.7728C58.038 48.2946 59.5423 47.8163 61.0645 47.4192C63.3294 46.8279 65.7746 46.452 68.1179 46.0918L68.1224 46.0911C68.3613 46.0544 68.5991 46.0179 68.8356 45.9813C69.3591 45.9002 70.5961 45.7554 72.1143 45.5778L72.1277 45.5762L72.1314 45.5757L72.1334 45.5754C75.919 45.1323 81.4362 44.4864 82.0159 44.1149C82.6263 43.7232 84.0186 43.6492 85.1341 43.59C85.5601 43.5673 85.9457 43.5468 86.232 43.5116C88.2798 43.261 90.2607 43.1515 92.2439 43.0418C93.8915 42.9508 95.5405 42.8596 97.2309 42.6874C98.3048 42.5778 99.3704 42.371 100.436 42.1641C101.572 41.9438 102.708 41.7234 103.854 41.6203C104.641 41.5494 105.436 41.5361 106.231 41.5229C107.192 41.5069 108.153 41.4909 109.1 41.3728C109.828 41.2818 110.554 41.1106 111.275 40.94C111.734 40.8316 112.193 40.7232 112.651 40.6358C114.276 40.3258 116.043 40.1589 117.697 40.062C119.409 39.9614 121.197 40.1664 122.866 40.5448C125.223 41.0787 126.595 41.6473 127.91 43.7395C128.451 44.6014 128.93 45.6256 128.647 46.6632C128.261 48.0838 125.57 50.0094 124.278 50.6537C123.337 51.1246 122.273 51.374 121.239 51.6164C121.046 51.6618 120.854 51.7069 120.664 51.7531C120.471 51.8001 120.277 51.8481 120.084 51.8967C119.905 51.9417 119.726 51.987 119.546 52.0324L119.544 52.033C118.294 52.3494 117.035 52.6683 115.769 52.8524C114.728 53.0037 113.68 53.0847 112.631 53.1656C111.633 53.2426 110.636 53.3196 109.645 53.4573C106.428 53.9185 103.231 54.5114 100.063 55.2347C99.9636 55.2565 99.8581 55.2784 99.7477 55.3006C99.5235 55.3456 99.2791 55.3914 99.0236 55.4393L99.0073 55.4424C97.8121 55.6666 96.3771 55.9359 95.6082 56.363C94.5979 56.9239 93.9088 56.9247 93.1441 56.9256C92.7162 56.9261 92.2646 56.9267 91.7198 57.0253C90.4441 57.2545 88.1808 58.0551 87.4956 59.2712C87.3239 62.3739 100.194 60.2456 105.336 59.3953C106.202 59.252 106.849 59.145 107.178 59.1055C109.782 58.4964 112.522 58.4415 115.211 58.3878C116.941 58.3532 118.651 58.3189 120.289 58.1378C121.885 57.9608 123.547 57.8227 125.208 57.6846L125.212 57.6843C127.258 57.5143 129.303 57.3442 131.228 57.1014C132.565 56.9329 133.896 56.6971 135.23 56.4609C138.682 55.8497 142.149 55.2359 145.754 55.7805C146.901 55.9538 148.225 55.7357 149.583 55.5119C151.184 55.2481 152.833 54.9764 154.295 55.3299L160.421 58.8665C161.081 59.779 161.725 61.6237 161.498 62.7392C160.947 65.4438 157.623 66.5986 154.929 67.5346C154.273 67.7624 153.655 67.9772 153.123 68.1982C150.476 69.2986 147.09 69.5701 144.105 69.8095C143.893 69.8265 143.683 69.8433 143.475 69.8603C143.311 69.8738 143.148 69.8873 142.987 69.901L130.804 70.9265C130.502 70.9533 130.037 70.9707 129.532 70.9896C128.609 71.0242 127.553 71.0638 127.113 71.1749C123.178 72.1712 119.183 72.5966 115.202 73.0205C111.833 73.3792 108.473 73.7369 105.166 74.4388C104.363 74.6091 103.222 74.7363 101.945 74.8786C98.4447 75.2688 93.925 75.7727 92.5498 77.5899C92.3144 78.3081 92.5706 79.1798 93.2435 79.5667L93.2466 79.5666C93.3599 79.5666 94.2445 79.5668 93.9422 79.4932C93.9712 79.5 94.0004 79.5072 94.0297 79.5148C94.0509 79.5202 94.0721 79.5257 94.0934 79.5314C94.134 79.5422 94.1747 79.5535 94.2156 79.565C94.2735 79.5813 94.3318 79.5982 94.3903 79.6151L94.3994 79.6177C94.8193 79.7393 95.256 79.8657 95.6772 79.8335C96.8425 79.7477 98.0057 79.6795 99.1673 79.6113C101.932 79.4491 104.687 79.2874 107.444 78.8915C107.923 78.8231 108.44 78.794 108.955 78.7651C109.047 78.7599 109.138 78.7547 109.23 78.7493C109.33 78.7434 109.43 78.7373 109.529 78.7306C109.593 78.7262 109.656 78.7217 109.719 78.7168C109.822 78.709 109.923 78.7003 110.023 78.6905C110.566 78.6367 111.112 78.5879 111.659 78.5389L111.677 78.5372C112.735 78.4424 113.796 78.3474 114.845 78.2175C115.048 78.1924 115.251 78.1661 115.453 78.1388C115.902 78.0785 116.351 78.014 116.799 77.9495C117.951 77.7836 119.103 77.6177 120.265 77.5244C121.053 77.4439 121.876 77.421 122.697 77.3982C123.534 77.375 124.369 77.3519 125.167 77.2677C125.965 77.1829 126.778 77.055 127.591 76.9271L127.595 76.9264C128.211 76.8295 128.827 76.7327 129.436 76.6547C129.961 76.5859 130.5 76.5605 131.04 76.535C131.647 76.5063 132.257 76.4775 132.842 76.3872C133.309 76.3158 133.77 76.226 134.231 76.1362C134.828 76.0199 135.425 75.9035 136.035 75.8271C136.466 75.7723 136.903 75.7268 137.34 75.6814L137.344 75.6811C137.828 75.6307 138.312 75.5804 138.786 75.5177C138.896 75.5032 139.009 75.4904 139.125 75.4786C139.283 75.4626 139.446 75.4486 139.611 75.435L139.785 75.4207C140.413 75.37 141.061 75.3175 141.596 75.18L142.771 75.6708L142.821 75.341C146.274 74.9636 149.752 74.7146 153.23 74.4657C156.575 74.2262 159.92 73.9868 163.242 73.6331C163.971 73.5551 165.809 73.5033 166.46 73.7507L166.636 74.3159L166.927 74.379C167.041 74.0438 167.064 73.9355 167.127 73.5862C168.07 73.6771 172.567 74.9852 173.028 75.7433C173.845 77.0912 174.748 79.7435 174.916 81.3115C174.866 81.3756 174.817 81.4397 174.768 81.5038C174.68 81.62 174.591 81.7362 174.503 81.8526C174.385 82.0077 174.267 82.163 174.15 82.3184L174.094 82.3921L174.09 82.398L174.081 82.4093C173.945 82.5898 173.808 82.7704 173.671 82.9507C173.047 83.773 172.211 84.3672 171.374 84.9617ZM45.5147 57.1919C38.9335 66.3475 38.2179 76.5001 40.1001 87.1181C40.0684 87.6356 40.3933 88.5857 40.664 89.3772L40.6863 89.4424C40.797 89.7664 40.8965 90.0604 40.9556 90.2825C42.2397 94.8316 44.1767 99.8366 46.8983 103.752C48.4975 106.053 51.2687 109.304 53.2277 111.33C54.7032 112.853 57.1395 114.509 58.9457 115.602C59.6012 116 60.1592 116.475 60.7372 116.98C62.347 118.379 63.608 116.689 64.6202 115.332L64.6653 115.271C64.8905 114.969 65.1032 114.687 65.3046 114.462C65.543 114.196 65.8221 113.928 66.1069 113.657L66.1597 113.607C66.5648 113.221 66.977 112.829 67.2955 112.425C71.9043 105.625 74.2492 97.7046 73.9426 89.4923C73.8984 88.3005 73.6861 86.9439 73.4859 85.6646L73.4834 85.649L73.4814 85.6373C73.4185 85.234 73.3566 84.8384 73.3019 84.4584C71.8319 77.5238 67.9673 69.3142 62.888 64.2004C59.2751 60.5634 52.8082 56.569 47.9018 55.0996C46.55 55.8045 46.3666 56.0083 45.5147 57.1919Z" fill="#1A1A1A"/>
<path d="M69.3289 84.3585C69.9073 86.9801 70.173 88.1848 68.3098 91.2624C67.4289 92.6768 66.6947 93.8342 65.4478 94.8749C61.6628 98.0357 55.8577 100.304 51.3588 97.1993C51.1745 97.0724 50.9934 96.9468 50.8138 96.8222C50.8088 96.8188 50.8038 96.8153 50.7989 96.8119L50.4727 96.5859L50.4696 96.5837C49.7043 96.0543 48.9556 95.5466 48.1227 95.0621C46.2725 91.4941 45.6723 88.1338 46.787 84.1349C46.8951 83.7457 47.6119 81.9153 47.8058 81.6146C48.4449 79.3858 51.8617 76.2475 53.7484 75.3174C59.8729 72.2964 67.6791 76.0676 69.005 82.8286C69.0779 83.1998 69.1509 83.5444 69.2211 83.8676L69.296 84.2097L69.3284 84.3561L69.3289 84.3585Z" fill="#1A1A1A"/>
</g>
</g>
</svg>
