<svg preserveAspectRatio="none" overflow="visible" style="display: block;" width="554" height="579.767" viewBox="0 0 554 579.767" fill="none" xmlns="http://www.w3.org/2000/svg">
<g id="Group 8">
<path id="Vector" fill-rule="evenodd" clip-rule="evenodd" d="M313.259 2.60896C312.13 1.76433 310.148 0.280156 309.539 4.13507e-06C305.896 2.56516 303.924 6.025 301.889 9.59397C300.77 11.5571 299.633 13.5529 298.188 15.4507C295.026 19.603 291.907 23.913 288.76 28.0569C285.03 32.9717 280.973 40.0742 277.18 44.6588C268.206 55.5068 258.586 66.0247 249.06 76.4473C247.324 78.3465 245.617 80.9506 243.905 83.5644C242.305 86.0072 240.698 88.4583 239.058 90.3492C234.716 95.3592 230.292 100.28 225.844 105.179C221.354 110.126 216.84 115.05 212.362 120.02C208.91 123.853 205.572 128.635 202.338 133.267C200.502 135.896 198.698 138.478 196.928 140.811C195.155 143.148 192.977 145.632 190.798 148.118C188.847 150.343 186.895 152.57 185.23 154.693C184.097 156.139 184.177 156.27 183.978 158.096C182.624 159.926 179.076 161.274 177.04 163.604C176.068 164.717 175.191 165.932 174.343 167.161C172.994 169.118 171.72 171.111 170.267 172.788C164.635 179.282 160.105 185.586 155.622 192.829C153.221 196.709 149.216 200.594 146.822 204.599C144.415 208.242 142.669 212.192 140.924 216.141C140.046 218.126 139.169 220.111 138.208 222.056C137.808 222.864 137.152 223.304 136.373 223.826C135.319 224.533 134.037 225.393 132.856 227.523C131.603 229.787 130.48 232.257 129.356 234.727C127.837 238.071 126.317 241.416 124.469 244.255L124.053 244.89C124.068 251.794 122.73 254.715 121.294 257.848C120.515 259.551 119.708 261.317 119.072 263.818C117.86 268.589 118.224 293.038 119.161 297.656C120.911 306.269 125.613 318.151 131.089 325.304C131.929 326.611 133.015 327.862 134.088 329.099C134.907 330.043 135.721 330.98 136.413 331.93C137.404 333.289 137.685 335.85 138.748 337.055C152.149 352.251 166.957 370.654 156.092 390.947C155.785 391.522 155.404 393.2 155.088 394.42C154.988 394.805 154.895 395.144 154.813 395.39C153.043 395.301 148.898 395.197 147.305 394.724C142.815 393.393 138.63 391.029 134.457 388.673C131.031 386.738 127.614 384.809 124.045 383.461C110.083 378.186 91.9221 371.367 76.927 375.153C59.3303 379.595 51.4625 389.518 43.3366 403.397C42.6455 404.595 42.1544 406.281 41.6424 408.043C40.7215 411.207 39.7303 414.613 37.3794 415.867C28.2027 420.764 19.6782 426.413 11.1955 432.234C9.99985 433.054 8.48631 433.74 6.96083 434.431C2.96054 436.244 -1.11587 438.092 0.279753 442.48C0.908157 444.46 1.30968 444.707 3.1113 445.817L3.25161 445.902C3.92778 445.617 5.56073 444.904 6.99665 444.338C7.98926 443.946 8.88783 443.625 9.31025 443.565C13.924 442.883 18.5826 441.682 23.2665 440.474C31.1252 438.448 39.0572 436.404 46.9712 436.762C53.9075 437.076 60.799 440.253 67.4517 443.322C70.943 444.933 74.3701 446.513 77.7032 447.633C82.6095 449.277 93.773 452.821 96.7926 456.725C104.759 467.025 109.253 478.989 113.737 490.926C119.818 507.113 125.881 523.251 140.557 535.123C141.515 535.9 142.471 536.775 143.448 537.67C146.18 540.172 149.08 542.828 152.691 543.933C162.221 546.484 171.331 550.527 180.879 552.899C186.072 554.049 191.546 554.283 196.788 555.146C226.439 560.035 254.947 557.654 282.782 546.64L286.103 545.325C300.446 539.643 315.605 533.637 330.365 529.41C333.208 528.757 336.219 528.563 339.203 528.371C341.333 528.234 343.448 528.098 345.478 527.796C346.869 527.589 348.26 527.371 349.653 527.154C356.831 526.033 364.028 524.908 371.342 525.18C373.417 525.256 375.423 525.668 377.404 526.224C380.423 527.073 383.38 528.256 386.418 529.089C390.802 530.29 395.602 531.384 399.82 532.945C400.892 533.341 401.741 534.053 402.623 534.794C403.67 535.672 404.765 536.592 406.339 537.075L496.473 564.538C512.773 569.517 530.068 575.139 546.39 579.767C546.755 578.796 547.82 575.955 547.9 574.996C547.962 574.244 547.958 573.507 547.953 572.775C547.941 571.146 547.931 569.547 548.664 567.895L548.921 567.813C549.944 567.479 550.131 567.396 551.054 566.885C552.33 563.314 551.709 558.73 551.17 554.744C550.861 552.459 550.579 550.37 550.695 548.783C550.897 546.035 551.018 542.665 551.148 539.082C551.436 531.1 551.763 522.055 553.103 516.453C543.925 515.348 534.74 514.285 525.55 513.265C521.535 512.818 517.518 512.38 513.5 511.95L515.151 511.674C518.995 511.03 522.919 510.371 526.846 510.072C528.897 509.917 531.019 509.959 533.154 510.002C536.638 510.072 540.153 510.142 543.443 509.356C544.89 509.009 547.429 507.001 548.45 505.504C552.848 499.062 554.049 484.939 553.999 477.243C553.996 476.878 553.57 475.806 553.14 474.719C552.701 473.611 552.258 472.489 552.251 472.09C552.172 467.817 552 463.414 551.91 459.215C551.757 452.036 550.533 445.551 549.791 438.584C547.443 436.796 546.767 436.017 544.861 433.818L544.807 433.756C545.022 429.718 544.393 429.982 542.957 426.413C542.378 424.971 542.032 423.4 541.683 421.816C541.053 418.967 540.414 416.076 538.397 413.816C536.302 411.469 532.86 412.323 530.101 413.009C525.561 414.137 521.035 415.327 516.509 416.516C513.673 417.262 510.837 418.008 507.998 418.739L440.375 435.991C428.752 438.966 415.336 442.675 403.603 444.961C400.165 445.631 393.947 445.292 388.011 444.969C384.404 444.773 380.901 444.583 378.189 444.627L379.023 444.121C379.762 443.669 380.647 443.129 381.119 442.875C382.767 441.986 383.882 441.809 384.863 441.652C386.257 441.43 387.378 441.252 389.37 439.136C400.559 437.101 411.155 432.52 420.79 427.12C421.471 426.668 422.641 426.36 423.783 426.06C424.943 425.755 426.074 425.458 426.634 425.024C429.605 422.725 432.924 421.065 436.238 419.408C437.957 418.549 439.674 417.69 441.34 416.744C443.229 415.67 444.176 415.273 445.156 414.948C446.046 414.653 446.964 414.419 448.639 413.794C458.692 409.933 468.277 405.209 477.371 399.669C479.154 398.582 480.935 396.954 482.713 395.328C484.426 393.76 486.138 392.195 487.847 391.12C490.631 389.365 493.361 388.045 495.999 386.771C501.278 384.219 506.182 381.848 510.379 376.538C511.576 375.028 520.342 371.802 522.825 370.61C522.851 370.371 522.886 370.017 522.928 369.58C523.229 366.467 523.937 359.137 525.15 358.711C528.616 357.499 528.638 352.916 525.741 350.202C524.555 349.949 521.498 350.961 518.372 351.995C516.148 352.732 513.888 353.48 512.242 353.792C502.455 362.198 495.026 367.798 482.508 371.737C475.317 374 467.188 377.221 461.062 381.265C460.447 381.702 457.965 382.229 455.43 382.766C452.996 383.282 450.513 383.808 449.59 384.276C445.135 386.081 440.737 387.638 436.28 389.107C433.051 390.17 429.791 391.188 426.457 392.222L425.955 392.069C421.361 390.703 405.97 395.356 393.76 399.048C385.274 401.613 378.326 403.713 377.608 403.005C377.777 402.163 378.032 401.48 378.431 400.893C378.895 400.21 379.552 399.657 380.489 399.135C387.89 395.014 395.907 391.962 403.944 388.902C409.927 386.626 415.923 384.344 421.685 381.614C428.664 378.306 434.733 374.597 440.884 370.837C444.362 368.712 447.867 366.57 451.578 364.476L481.834 347.437C484.652 345.829 488.689 344.121 491.285 342.321C502.94 334.233 514.46 325.063 524.507 315.31C527.27 312.627 537.484 297.084 533.24 293.85C529.3 290.852 521.977 296.238 519.532 299.119C516.891 299.986 511.179 301.405 509.051 302.62C501.145 307.125 493.008 310.969 484.831 314.833C481.675 316.324 478.514 317.817 475.359 319.352C472.29 320.846 469.277 322.778 466.25 324.721C463.001 326.805 459.735 328.901 456.362 330.478C444.674 336.145 431.885 341.445 419.713 346.151C416.717 347.309 414.556 348.338 412.623 349.259C408.922 351.022 406.057 352.387 399.783 353.491C407.078 346.742 415.326 342.857 423.785 338.873C427.661 337.048 431.582 335.201 435.475 333.048C440.386 330.331 444.782 326.942 449.172 323.558C451.849 321.493 454.524 319.43 457.312 317.523C458.307 316.844 459.475 316.452 460.641 316.061C461.835 315.66 463.028 315.259 464.025 314.552C465.785 313.305 467.298 311.731 468.815 310.157C470.178 308.741 471.542 307.325 473.085 306.142C475.093 304.602 478.083 304.229 480.263 302.865C485.401 299.649 490.443 295.556 495.272 291.634C496.532 290.61 497.778 289.598 499.008 288.616C500.374 287.526 502.434 285.757 504.779 283.745C510.518 278.82 517.957 272.434 521.083 270.947C522.866 270.096 524.302 268.797 524.94 266.99C525.293 265.987 525.204 264.881 525.116 263.812C525.09 263.5 525.065 263.191 525.052 262.89C524.979 261.379 527.692 255.743 530.689 249.52C534.025 242.594 537.711 234.941 538.294 231.439C538.608 229.576 538.29 227.418 536.679 226.117C536.026 225.588 535.166 225.247 534.352 224.925L533.842 224.719L532.524 224.171C530.815 226.041 529.515 226.805 527.362 228.248L498.654 250.237C497.381 251.211 496.145 252.175 494.924 253.126C490.424 256.635 486.132 259.98 480.966 263.093C476.387 265.853 472.288 270.152 467.08 272.389C465.982 272.94 464.915 273.615 463.871 274.261C449.319 284.623 433.244 294.071 416.662 301.33C415.078 302.021 413.75 302.656 412.509 303.249C409.567 304.655 407.13 305.82 402.995 306.903C404.621 304.865 406.522 303.263 408.49 301.747C410.223 300.412 412.006 299.143 413.694 297.701C418.865 293.284 424.907 290.381 430.878 287.513C432.796 286.591 434.706 285.672 436.58 284.708C439.541 283.184 442.923 279.34 446.092 275.738C448.272 273.26 450.351 270.897 452.124 269.481C452.987 268.645 454.245 268.092 455.603 267.517C457.145 266.863 458.817 266.181 460.187 265.02C479.462 248.711 497.042 230.738 512.69 211.343C519.033 203.561 525.416 195.647 530.274 186.938C534.681 179.043 539.18 166.638 538.248 157.723C538.141 156.728 537.778 155.757 536.917 155.132C536.073 154.526 535.043 154.408 534.013 154.573C527.806 155.571 507.758 175.161 493.793 188.807C488.561 193.919 484.183 198.197 481.707 200.351C479.775 202.031 477.841 203.725 475.902 205.423C469.701 210.857 463.453 216.331 457.093 221.504C455.253 223 453.335 224.407 451.417 225.814C449.063 227.541 446.709 229.268 444.498 231.16L441.528 233.705C436.296 238.189 431.102 242.641 425.734 247.03C424.276 248.221 422.776 249.638 421.22 250.904C420.32 251.635 419.402 252.316 418.463 252.873C417.038 253.72 415.271 254.222 413.679 254.747C418.222 249.252 422.503 244.394 427.782 239.509C429.266 238.136 430.669 235.878 432.106 234.402C434.98 230.516 438.808 227.936 442.701 225.313C444.443 224.139 446.197 222.957 447.885 221.644C454.005 216.884 460.102 209.877 463.75 203.235C472.5 198.562 477.842 192.089 483.538 185.188C485.41 182.92 487.321 180.605 489.403 178.293C496.66 170.239 503.531 161.827 509.922 153.162C511.445 151.025 520.641 133.179 521.241 130.87C521.475 129.967 521.802 128.794 522.181 127.431C524.408 119.426 528.456 104.879 526.402 100.126C525.871 99.6936 525.732 99.3738 525.192 99.4996C522.974 100.019 516.461 105.671 515.372 107.184C511.069 113.139 508.93 117.174 503.737 122.571C494.064 132.639 483.434 141.88 472.823 151.105C469.821 153.716 466.821 156.324 463.843 158.951C462.031 160.552 460.228 163.771 458.541 165.989C457.969 166.742 457.411 167.38 456.871 167.801C454.608 169.557 452.329 171.271 450.054 172.983C445.188 176.643 440.34 180.289 435.712 184.299C435.262 184.689 434.527 185.355 433.659 186.144C431.061 188.5 427.264 191.945 426.246 192.364C425.837 189.462 435.202 179.629 442.461 172.007C445.97 168.322 448.987 165.155 450.167 163.538C459.757 150.392 469.321 137.157 478.893 123.992C481.08 121.106 483.359 118.261 485.641 115.413C493.861 105.156 502.117 94.8518 506.219 82.3986C506.641 81.05 506.958 79.6138 507.255 78.156C507.815 75.3997 508.304 72.5662 509.307 70.0997C510.169 67.9746 511.33 65.9044 512.496 63.8286C513.89 61.3441 515.29 58.8513 516.182 56.2472C518.032 50.8784 518.568 46.2563 521.377 41.1531C520.98 40.6539 520.556 40.0484 520.104 39.4026C517.759 36.0554 514.66 31.6314 510.779 35.3804C497.886 47.8378 485.5 60.9166 474.194 74.669C472.56 76.6579 471.009 78.7086 469.464 80.7636C467.857 82.9012 466.256 85.0444 464.574 87.1278C463.598 88.3402 463.595 88.3395 462.093 88.1267L461.859 88.0934C457.178 90.7322 443.925 105.808 439.947 110.293C437.832 112.747 435.545 114.309 433.459 116.856C432.338 118.223 431.393 119.342 430.442 120.468C429.375 121.733 428.3 123.008 426.958 124.653C425.133 126.891 422.759 129.174 420.341 131.499C416.571 135.126 412.694 138.854 410.629 142.674C409.545 144.676 408.604 145.184 407.533 145.762C406.688 146.219 405.76 146.72 404.613 148.036C401.62 151.789 399.422 156.03 396.707 159.898C396.36 160.391 393.014 163.248 392.468 163.582C387.437 166.66 384.418 170.86 381.382 175.086C379.84 177.23 378.293 179.381 376.477 181.395C372.556 185.743 368.027 189.888 363.513 194.02C359.803 197.417 356.101 200.805 352.754 204.29C351.005 206.017 349.799 208.524 348.5 210.415C348.099 210.998 347.69 211.523 347.252 211.947C339.162 219.801 332.168 228.25 325.072 236.822L322.788 239.577C321.837 240.722 320.371 241.63 318.92 242.527C317.856 243.186 316.801 243.839 315.962 244.578C313.096 247.397 310.211 251.792 307.357 254.821C306.615 255.607 306.754 257.197 306.852 258.318L306.878 258.628C304.775 261.805 300.53 261.062 301.043 264.462C301.061 264.576 300.186 265.392 299.168 266.343C297.819 267.602 296.219 269.098 296.111 269.5C295.258 270.755 293.893 272.662 292.265 274.938C286.22 283.389 276.54 296.922 275.928 300.98C272.113 304.488 267.903 311.072 264.088 317.04C262.306 319.827 260.61 322.481 259.08 324.623C257.598 326.7 255.852 329.056 253.998 331.556C248.583 338.857 242.252 347.393 238.934 353.81C237.176 357.209 235.722 360.676 234.262 364.159C231.51 370.725 228.732 377.349 223.849 383.689C224.311 381.738 225.166 378.495 224.959 376.624C223.576 364.168 228.126 354.555 233.452 343.303L233.734 342.709C238.649 332.322 244.875 322.303 251.09 312.302C255.968 304.454 260.839 296.618 265.063 288.623C265.582 287.916 266.454 287.159 267.342 286.389C268.451 285.428 269.586 284.444 270.092 283.506C271.826 280.288 273.869 276.785 275.358 273.472C276.686 270.515 278.367 267.786 280.034 265.08C282.909 260.413 285.741 255.816 286.647 250.246C295.573 244.032 302.718 228.598 308.064 217.049C309.05 214.921 309.974 212.925 310.836 211.142C311.959 208.824 313.648 205.776 315.163 202.842C316.314 200.615 317.364 198.454 317.991 196.727C320.322 190.3 322.767 183.512 325.082 177.013C325.802 174.99 326.361 172.665 326.936 170.342C327.446 168.281 327.969 166.222 328.629 164.378C329.427 162.145 330.615 159.882 331.805 157.618C332.939 155.459 334.075 153.298 334.875 151.157C335.016 150.785 334.895 150.033 334.762 149.207C334.632 148.4 334.492 147.523 334.572 146.866C335.192 141.866 338.823 132.63 337.156 128.071C337.11 127.944 336.94 127.804 336.711 127.664C336.204 127.354 335.413 127.048 335.068 126.909C332.714 127.454 328.457 132.883 325.1 137.162C323.669 138.987 322.401 140.603 321.516 141.543C312.975 150.596 305.512 160.398 298.058 170.19C288.784 182.372 279.521 194.538 268.211 205.223C266.161 207.16 264.32 209.114 262.469 211.078C260.173 213.514 257.862 215.966 255.122 218.42C259.039 212.98 261.903 208.27 265.078 203.047C265.993 201.541 266.933 199.994 267.933 198.374L288.893 163.613C290.481 160.939 292.589 157.579 294.511 155.125C300.1 147.993 303.267 139.261 306.329 130.824C306.82 129.468 307.309 128.12 307.805 126.788C309.269 122.852 313.05 118.017 314.035 114.818C315.455 110.211 317.173 105.615 318.898 101.001C323.388 88.9908 327.923 76.863 327.336 64.1429C327.236 61.9726 324.621 61.1064 322.8 60.5037L322.376 60.3626C318.728 67.0104 314.893 70.7977 310.56 75.0785C308.517 77.0973 306.361 79.2259 304.063 81.816C302.727 83.3225 301.163 85.5755 299.55 87.898C298.004 90.1253 296.413 92.4166 294.935 94.1761C288.778 101.511 282.352 109.13 276.838 116.884C275.079 119.359 273.235 123.108 271.433 126.77C269.763 130.167 268.13 133.489 266.633 135.652C265.073 137.907 263.705 139.75 262.43 141.466C259.668 145.184 257.355 148.298 254.516 153.688C251.713 153.407 245.491 162.469 243.993 164.524C244.642 163.054 245.332 161.651 246.015 160.258C247.232 157.781 248.43 155.339 249.359 152.622C251.987 144.931 256.618 137.939 260.727 130.891C261.43 129.68 262.01 128.346 262.593 127.007C263.212 125.579 263.834 124.145 264.612 122.85C267.965 117.951 270.911 112.857 273.855 107.771C278.289 100.107 282.713 92.4597 288.505 85.5143C288.59 85.4128 288.599 84.904 288.611 84.2477C288.636 82.9728 288.669 81.1403 289.286 80.6544C291.675 75.7549 294.072 71.1404 296.386 66.6886C307.111 46.0505 316.02 28.9036 313.834 3.03857L313.259 2.60896ZM93.3715 399.114C97.5539 399.077 98.8391 400.285 101.502 402.882C102 405.305 102.609 407.066 103.405 409.43C100.317 414.926 98.5032 415.919 92.0341 417.143L91.437 416.945L90.6474 416.674C75.0926 411.217 81.2094 403.199 93.3715 399.114Z" fill="#F2F2F2"/>
</g>
</svg>
